<svg width="32" height="32" viewBox="0 0 32 32" fill="none" xmlns="http://www.w3.org/2000/svg">
<rect opacity="0.1" x="0.5" y="0.5" width="31" height="31" rx="3.5" stroke="black"/>
<g opacity="0.3">
<path d="M16.0002 11.8333C18.3002 11.8333 20.1668 13.7 20.1668 16C20.1668 16.5417 20.0585 17.05 19.8668 17.525L22.3002 19.9583C23.5585 18.9083 24.5502 17.55 25.1585 16C23.7168 12.3417 20.1585 9.75 15.9918 9.75C14.8252 9.75 13.7085 9.95833 12.6752 10.3333L14.4752 12.1333C14.9502 11.9417 15.4585 11.8333 16.0002 11.8333ZM7.66683 9.55833L9.56683 11.4583L9.95016 11.8417C8.56683 12.9167 7.4835 14.35 6.8335 16C8.27516 19.6583 11.8335 22.25 16.0002 22.25C17.2918 22.25 18.5252 22 19.6502 21.55L20.0002 21.9L22.4418 24.3333L23.5002 23.275L8.72516 8.5L7.66683 9.55833ZM12.2752 14.1667L13.5668 15.4583C13.5252 15.6333 13.5002 15.8167 13.5002 16C13.5002 17.3833 14.6168 18.5 16.0002 18.5C16.1835 18.5 16.3668 18.475 16.5418 18.4333L17.8335 19.725C17.2752 20 16.6585 20.1667 16.0002 20.1667C13.7002 20.1667 11.8335 18.3 11.8335 16C11.8335 15.3417 12.0002 14.725 12.2752 14.1667ZM15.8668 13.5167L18.4918 16.1417L18.5085 16.0083C18.5085 14.625 17.3918 13.5083 16.0085 13.5083L15.8668 13.5167Z" fill="black"/>
</g>
</svg>
